<?xml version="1.0" encoding="UTF-8" standalone="no"?>
<svg
   xmlns:dc="http://purl.org/dc/elements/1.1/"
   xmlns:cc="http://creativecommons.org/ns#"
   xmlns:rdf="http://www.w3.org/1999/02/22-rdf-syntax-ns#"
   xmlns:svg="http://www.w3.org/2000/svg"
   xmlns="http://www.w3.org/2000/svg"
   xmlns:sodipodi="http://sodipodi.sourceforge.net/DTD/sodipodi-0.dtd"
   xmlns:inkscape="http://www.inkscape.org/namespaces/inkscape"
   width="286"
   height="300"
   viewBox="0 0 1000 1052"
   version="1.0"
   id="svg2"
   sodipodi:version="0.32"
   inkscape:version="0.46"
   sodipodi:docname="1000px-SAIL_Logo.svg"
   inkscape:output_extension="org.inkscape.output.svg.inkscape">
  <metadata
     id="metadata22">
    <rdf:RDF>
      <cc:Work
         rdf:about="">
        <dc:format>image/svg+xml</dc:format>
        <dc:type
           rdf:resource="http://purl.org/dc/dcmitype/StillImage" />
      </cc:Work>
    </rdf:RDF>
  </metadata>
  <defs
     id="defs20">
    <inkscape:perspective
       sodipodi:type="inkscape:persp3d"
       inkscape:vp_x="0 : 657.5 : 1"
       inkscape:vp_y="0 : 1000 : 0"
       inkscape:vp_z="1250 : 657.5 : 1"
       inkscape:persp3d-origin="625 : 438.33333 : 1"
       id="perspective24" />
  </defs>
  <sodipodi:namedview
     inkscape:window-height="669"
     inkscape:window-width="640"
     inkscape:pageshadow="2"
     inkscape:pageopacity="0.0"
     guidetolerance="10.0"
     gridtolerance="10.0"
     objecttolerance="10.0"
     borderopacity="1.0"
     bordercolor="#666666"
     pagecolor="#ffffff"
     id="base"
     showgrid="false"
     inkscape:zoom="0.3513308"
     inkscape:cx="625"
     inkscape:cy="657.5"
     inkscape:window-x="115"
     inkscape:window-y="95"
     inkscape:current-layer="svg2" />
  <g
     id="#162959ff">
    <path
       d="M 499.71,0 L 500.45,0 C 501.32,1.28 502.16,2.6 503.21,3.76 C 516.52,16.44 529.29,29.69 542.37,42.61 C 691.4,191.64 840.44,340.65 989.46,489.68 C 992.79,493.16 996.28,496.48 1000,499.54 L 1000,500.26 C 996.59,501.98 994.2,504.97 991.68,507.72 C 898.27,601.07 804.87,694.44 711.47,787.8 C 711.47,709.97 711.49,632.14 711.46,554.32 C 729.19,535.93 747.39,518.01 765.23,499.72 C 676.78,411.38 588.45,322.93 500.04,234.55 C 411.63,322.99 323.14,411.36 234.77,499.84 C 252.77,517.92 270.74,536.03 288.66,554.18 C 288.57,632.07 288.58,709.95 288.53,787.84 C 196.11,695.45 103.68,603.08 11.26,510.69 C 7.76,506.91 3.93,503.48 0,500.16 L 0,499.32 C 3.69,497.37 6.23,494.03 9.05,491.07 C 167.05,333.04 325.12,175.08 483.25,17.18 C 488.78,11.49 494.77,6.24 499.71,0 z"
       id="path5"
       style="opacity:1;fill:#162959" />
    <path
       d="M 445.68,397.69 C 463.77,379.71 481.82,361.69 499.93,343.72 C 570.06,413.75 640.11,483.85 710.13,553.99 C 640.04,624.01 569.94,694.03 499.91,764.12 C 429.75,694.18 359.66,624.18 289.49,554.25 C 341.23,501.74 393.58,449.84 445.68,397.69 z"
       id="path7"
       style="opacity:1;fill:#162959" />
    <path
       d="M 188.26,823.72 C 196.5,822.77 205.04,824.55 212.07,829.01 C 218.83,833.1 223.58,839.63 227.81,846.15 C 238.15,862.44 243.91,881.03 252.58,898.18 C 315.06,898.07 377.53,898.17 440.01,898.13 C 444.52,906.56 448.99,915.01 453.51,923.44 C 442.83,923.48 432.15,923.46 421.48,923.61 C 421.39,965.85 421.62,1008.09 421.5,1050.33 C 416.76,1048.37 412.73,1045.17 408.5,1042.36 C 403.33,1038.87 398.18,1035.35 393.01,1031.87 C 393.03,1008.49 392.95,985.12 392.87,961.74 C 386.9,963.56 381.02,966.08 376.31,970.26 C 367.21,978.01 361.84,988.9 355.79,998.97 C 348.14,993.83 340.46,988.73 332.87,983.5 C 336.46,977.78 340.12,972.1 343.43,966.21 C 338.88,963.31 333.53,960.79 328,961.96 C 319.87,963.3 313.21,969.72 310.67,977.43 C 307,988.72 307.8,1001.68 313.89,1011.99 C 320.13,1022.81 329.62,1031.45 340.22,1037.92 C 337.53,1041.55 334.74,1045.12 331.73,1048.51 C 320.83,1039.44 309.46,1030.55 301.18,1018.89 C 292.35,1006.7 285.92,992.24 285.55,977.01 C 285.07,963.02 292.61,948.39 305.62,942.47 C 314.26,938.47 324.64,938.57 333.24,942.64 C 340.25,945.79 345.91,951.23 350.59,957.22 C 355.71,953.31 360.71,948.9 366.99,946.99 C 375.55,943.97 384.92,945.65 393.07,949.11 C 392.94,940.57 393.05,932.04 392.96,923.5 C 347.99,923.51 303.02,923.39 258.05,923.61 C 258.17,965.87 258.13,1008.12 258.08,1050.38 C 248.06,1045.13 239.19,1037.97 229.63,1031.95 C 229.55,1018.62 229.59,1005.29 229.61,991.97 C 220.55,993.51 211.03,995.18 202.05,992.36 C 194.96,990.26 189.2,985.43 183.65,980.75 C 178.35,987.52 170.31,990.89 162.98,994.89 C 174.73,1009.92 186.92,1024.63 199,1039.41 C 195.24,1042.83 191.68,1046.54 187.53,1049.5 C 185.78,1050.57 184.29,1048.87 183.35,1047.58 C 168.28,1028.36 152.98,1009.31 138.18,989.88 C 132.96,982.56 126.74,974.57 127.56,965.04 C 127.74,958.41 135.01,954.07 141.12,955.32 C 145.58,956.07 148.61,959.74 151.45,962.93 C 155.38,961.75 160.3,959.69 160.64,954.96 C 161.06,944.52 160.66,934.06 160.9,923.62 C 145.97,923.47 131.03,923.42 116.09,923.49 C 111.5,915.12 107.08,906.65 102.61,898.21 C 148.84,898.07 195.07,898.15 241.29,898.06 C 234.76,885.72 229.84,872.19 220.24,861.78 C 213.83,854.89 204.41,850.94 194.97,851.62 C 192.65,842.34 190.39,833.04 188.26,823.72 M 189.35,923.54 C 189.34,937.72 189.45,951.91 189.24,966.09 C 193.16,968.24 197.49,969.75 202,969.76 C 212.11,970.03 221.56,965.36 229.53,959.53 C 229.48,947.53 229.62,935.53 229.59,923.53 C 216.18,923.54 202.76,923.38 189.35,923.54 z"
       id="path9"
       style="opacity:1;fill:#162959" />
    <path
       d="M 534.09,909.15 C 544.14,900.44 558.01,897.22 571.06,898.22 C 581.26,898.75 591.39,901.91 599.69,907.96 C 597.59,913.61 595.96,919.41 594.05,925.12 C 593.62,926.88 592.31,928.16 591.22,929.55 C 588.15,925.31 586.39,920.07 582.23,916.69 C 572.11,907.9 553.96,908.81 546.49,920.59 C 541.29,928.43 544.67,939.49 551.91,944.85 C 564.3,954.2 579.89,958.23 591.97,968.06 C 597.46,972.47 601.81,978.34 604.04,985.05 C 609.42,1000.94 604.71,1019.9 592.13,1031.11 C 582.83,1039.48 570.39,1043.61 558.07,1044.55 C 544.58,1045.55 530.45,1043.36 518.82,1036.13 C 521.03,1027.44 523.37,1018.77 524.76,1009.91 C 526.06,1009.92 527.36,1009.94 528.67,1009.97 C 530.68,1018.36 536.13,1026.32 544.38,1029.55 C 553.61,1033.05 564.83,1033.06 573.14,1027.26 C 581.28,1021.49 583.03,1009.34 578.1,1000.96 C 575.3,996.11 570.33,993.16 565.69,990.32 C 553.42,983.04 539.02,978.61 529.21,967.75 C 514.57,951.27 517.54,923.26 534.09,909.15 z"
       id="path11"
       style="opacity:1;fill:#162959" />
    <path
       d="M 669.11,899.92 C 674.38,900.6 679.71,900.62 684.98,899.85 C 703.07,947.59 721.01,995.44 741.82,1042.08 C 729.92,1040.95 717.95,1041.33 706.03,1041.85 C 701.9,1027.75 697.14,1013.84 692.01,1000.08 C 676.32,999.88 660.64,999.63 644.95,1000.09 C 639.26,1013.75 634.92,1027.92 630.82,1042.12 C 624.22,1041.04 617.49,1041.13 610.89,1042.09 C 630.98,994.99 650.8,947.75 669.11,899.92 M 663.99,952.02 C 659.09,963.83 654.54,975.79 650.21,987.83 C 662.54,987.95 674.87,987.89 687.2,988.01 C 681.89,971.79 675.75,955.86 669.51,939.98 C 667.17,943.74 665.66,947.93 663.99,952.02 z"
       id="path13"
       style="opacity:1;fill:#162959" />
    <path
       d="M 756.35,900.72 C 767.53,901.85 778.81,901.87 790,900.7 C 788.5,926.11 788.27,951.57 788.4,977.02 C 788.39,998.73 788.65,1020.46 790.03,1042.14 C 778.83,1041 767.53,1041 756.33,1042.14 C 758.2,1012.12 758.06,982.03 757.84,951.96 C 757.84,934.87 757.48,917.78 756.35,900.72 z"
       id="path15"
       style="opacity:1;fill:#162959" />
    <path
       d="M 818.06,900.7 C 829.25,901.87 840.54,901.85 851.73,900.72 C 849.27,942.66 850.17,984.69 850.66,1026.68 C 866.23,1026.51 881.8,1025.71 897.28,1023.97 C 896.56,1030.01 896.53,1036.13 897.26,1042.18 C 870.88,1040.95 844.43,1040.66 818.04,1042.14 C 819.71,1014.8 819.86,987.4 819.65,960.03 C 819.63,940.24 819.28,920.45 818.06,900.7 z"
       id="path17"
       style="opacity:1;fill:#162959" />
  </g>
</svg>
