<svg width="173" height="59" viewBox="0 0 173 59" fill="none" xmlns="http://www.w3.org/2000/svg">
<path d="M163.346 4.78069C163.346 7.44173 165.382 9.718 168.208 9.718C170.895 9.718 173 7.44173 173 4.78069C173 2.09932 170.894 0 168.209 0C165.382 0 163.347 2.09932 163.347 4.78069H163.346ZM68.0267 4.7694V16.9056C65.3556 15.6986 61.3132 14.5661 57.4123 14.5661C46.967 14.5661 40.9742 20.7895 40.084 30.8305C39.8435 33.7502 39.8435 39.491 40.084 42.3259C40.9742 52.2792 47.6176 59 58.5573 59C66.4158 59 72.974 55.5167 75.0794 53.9738C76.3804 53.0895 76.6205 52.1919 76.6205 50.736V4.7694C76.6205 2.3463 74.7545 0.399834 72.3234 0.399834C69.9772 0.399834 68.0267 2.3463 68.0267 4.7694ZM48.6631 41.2699C48.437 38.7579 48.5078 33.9885 48.6631 31.8034C48.9884 25.8962 51.9139 22.8199 58.0624 22.8199C62.2883 22.8199 66.3306 24.2754 68.0271 25.33V47.822C66.4154 49.0433 62.2035 50.736 58.7126 50.736C52.4801 50.736 49.158 47.4974 48.6631 41.2699ZM123.672 19.0091C122.457 19.8253 121.962 20.637 121.962 22.326L121.962 54.1331C121.962 56.5596 123.997 58.5128 126.273 58.5128C128.69 58.5124 130.555 56.5596 130.555 54.1331L130.556 25.0886C132.408 23.9494 136.223 22.8199 140.195 22.8199C145.227 22.8199 149.608 25.5713 149.608 32.0462V54.1331C149.608 56.5596 151.615 58.5128 153.89 58.5128C156.407 58.5124 158.187 56.5596 158.187 54.1331V31.6437C158.187 20.7119 152.194 14.5661 140.449 14.5661C131.941 14.5661 126.018 17.2441 123.672 19.0091H123.672ZM87.0657 16.9835C84.8744 17.9602 84.2242 19.5783 84.2242 20.9615C84.2242 23.4679 86.5705 25.33 90.1462 24.1918C92.4084 23.3873 95.6441 22.4186 98.9662 22.4186C105.284 22.4186 107.97 24.7581 107.97 30.2673V32.9298C104.238 32.0462 101.468 31.5677 97.6655 31.5677C86.3304 31.5677 81.2278 37.9635 81.2278 44.9956C81.2286 52.9257 86.7258 59 97.8355 59C106.259 59 112.422 55.9982 114.697 54.4618C115.913 53.6486 116.224 52.7691 116.224 51.312V30.2673C116.224 19.3313 109.835 14.5661 99.4611 14.5661C94.5145 14.5661 89.4116 15.8567 87.0654 16.9832L87.0657 16.9835ZM89.6521 44.6783C89.6521 40.7925 93.2138 38.5926 98.1604 38.5926C101.808 38.5926 104.393 39.0855 107.97 39.9725V48.9612C107.15 49.605 104.154 51.472 98.5565 51.472C92.8177 51.472 89.6513 49.0437 89.6513 44.6779H89.6517L89.6521 44.6783ZM5.80926 16.9835C3.63225 17.9602 2.96814 19.5783 2.96814 20.9615C2.96814 23.4679 5.3287 25.33 8.88971 24.1918C11.1662 23.3846 14.4167 22.4159 17.724 22.4159C24.0425 22.4159 26.7132 24.7581 26.7132 30.2673V32.9298C22.9819 32.0462 20.2395 31.5677 16.4237 31.5677C5.48399 31.5677 0.338839 37.5313 0 44.2713V45.7833C0.353538 53.3244 5.85147 59 16.5794 59C25.0172 59 31.1653 55.9982 33.441 54.4618C34.6569 53.6486 34.9814 52.7691 34.9814 51.312L34.9822 30.2673C34.9822 19.3313 28.5785 14.5661 18.2046 14.5661C13.272 14.5661 8.16907 15.8567 5.80888 16.9832L5.80926 16.9835ZM8.40991 44.6783C8.40991 40.7895 11.9717 38.5926 16.9042 38.5926C20.5508 38.5926 23.1515 39.0855 26.7132 39.9725V48.9612C25.9074 49.605 22.911 51.472 17.3139 51.472C11.562 51.472 8.40953 49.0437 8.40953 44.6779L8.40991 44.6783ZM163.912 19.6687V54.301C163.912 56.7324 165.947 58.6849 168.209 58.6849C170.64 58.6849 172.519 56.7324 172.519 54.301L172.519 19.6687C172.519 17.2441 170.569 15.3014 168.208 15.3014C165.777 15.3014 163.912 17.2441 163.912 19.6687H163.912Z" fill="black"/>
</svg>
