<svg width="194" height="46" viewBox="0 0 194 46" fill="none" xmlns="http://www.w3.org/2000/svg">
<mask id="mask0_2708_1705" style="mask-type:luminance" maskUnits="userSpaceOnUse" x="0" y="0" width="194" height="46">
<path d="M0 0H193.631V45.6361H0V0Z" fill="white"/>
</mask>
<g mask="url(#mask0_2708_1705)">
<path d="M53.5498 13.1211H59.7933V21.5316H68.0383V13.1211H74.275V35.5993H68.0383V27.0584H59.7865V35.5993H53.543V13.1211H53.5498ZM79.6783 24.422V24.3602C79.6783 17.9065 84.7742 12.668 91.7214 12.668C98.6685 12.668 103.696 17.8378 103.696 24.2916V24.3533C103.696 30.8071 98.6002 36.0387 91.653 36.0387C84.7059 36.0456 79.6783 30.8757 79.6783 24.422ZM97.3296 24.422V24.3602C97.3296 21.1196 95.0959 18.291 91.6599 18.291C88.2512 18.291 86.0858 21.051 86.0858 24.2984V24.3602C86.0858 27.6008 88.3195 30.4295 91.7282 30.4295C95.1573 30.4295 97.3296 27.6695 97.3296 24.422ZM109.386 13.1211H115.63V30.1411H125.945V35.5993H109.386V13.1211ZM129.08 24.422V24.3602C129.08 17.8104 134.128 12.668 140.952 12.668C145.55 12.668 148.514 14.5972 150.509 17.3572L145.809 20.9892C144.525 19.3826 143.043 18.3527 140.891 18.3527C137.742 18.3527 135.522 21.0166 135.522 24.2916V24.3533C135.522 27.7244 137.742 30.3608 140.891 30.3608C143.241 30.3608 144.62 29.2692 145.973 27.6283L150.673 30.965C148.548 33.8898 145.686 36.0387 140.7 36.0387C134.258 36.0456 129.08 31.1366 129.08 24.422ZM156.274 13.1211H162.545V35.5993H156.274V13.1211ZM169 13.1211H175.592L181.317 21.8268L187.041 13.1211H193.633V35.5993H187.423V22.4516L181.317 31.2533H181.187L175.107 22.5202V35.5993H168.993V13.1211H169Z" fill="black"/>
<path d="M29.6192 0C23.642 0 18.512 3.84478 17.1321 9.76985C16.8452 11.04 16.6471 12.674 16.6471 14.9191V19.2925H25.9577V9.35791H33.2806V25.4991C38.6497 23.9063 42.598 18.9218 42.598 12.9899C42.598 5.67791 36.901 0 29.6192 0ZM12.8627 44.9564C18.8467 44.9564 24.0861 41.1116 25.4659 35.1866C25.7528 33.9164 25.9509 32.2824 25.9509 30.0373V25.6639H16.6403V35.5985H9.31747V19.4573C3.94831 21.0501 0 26.0346 0 31.9597C0 39.5875 5.27352 44.9564 12.8627 44.9564Z" fill="black"/>
</g>
</svg>
