<svg width="107" height="107" viewBox="0 0 107 107" fill="none" xmlns="http://www.w3.org/2000/svg">
<path fill-rule="evenodd" clip-rule="evenodd" d="M7.82496 75.3246C7.82496 76.1711 7.35922 76.6363 6.4272 76.6363H3.12432C2.19285 76.6363 1.72656 76.1711 1.72656 75.3246V70.1582H3.08213V75.4933H6.46994V70.1582H7.82496V75.3246ZM45.3429 75.3246C45.3429 76.1711 44.8772 76.6363 43.9451 76.6363H40.6423C39.7102 76.6363 39.2445 76.1711 39.2445 75.3246V70.1582H40.5995V75.4933H43.9873V70.1582H45.3423L45.3429 75.3246ZM52.033 70.1588V71.3017H47.3751V72.826H50.466C51.5667 72.826 52.2445 73.123 52.2445 74.2238V75.1975C52.2445 76.3415 51.4402 76.6374 50.466 76.6374H46.0623V75.4944H50.8473V74.0123H47.4595C46.7823 74.0123 45.9774 73.5882 45.9774 72.6145C45.9774 72.6145 46.0201 71.5976 45.9774 71.5976C45.9774 70.5818 46.528 70.1588 47.4173 70.1588H52.033ZM80.9968 70.1588V71.3017H76.3389V72.826H79.4297C80.5311 72.826 81.2089 73.123 81.2089 74.2238V75.1975C81.2089 76.3415 80.3623 76.6374 79.4297 76.6374H75.0255V75.4944H79.7689V74.0123H76.4233C75.7455 74.0123 74.9412 73.5882 74.9412 72.6145C74.9412 72.6145 74.9833 71.5976 74.9412 71.5976C74.9412 70.5818 75.4918 70.1588 76.3811 70.1588H80.9968ZM58.5117 70.1588V71.3012H56.2674V76.6368H54.8702V71.3012H52.6259V70.1588H58.5117ZM94.0817 70.1588V71.3012H91.8375V76.6368H90.4403V71.3012H88.1538V70.1588H94.0817ZM85.2317 70.1588V75.4939H89.6359L89.5937 76.6368H85.1051C84.5123 76.6368 83.8767 76.1717 83.8767 75.3251V70.1588H85.2317ZM67.531 70.1588V76.6368H66.1771V70.1588H67.531ZM25.0171 70.1588V76.6368H23.6621V70.1588H25.0171ZM63.5937 70.1588C64.8643 70.1588 65.2451 70.9209 65.2451 71.5554V72.488C65.2451 72.9532 64.9914 73.1658 64.7377 73.2501C64.6534 73.2923 64.6534 73.3345 64.7377 73.3345C64.9071 73.4189 65.2451 73.546 65.2451 74.1811V76.6368H63.8474V74.0117H61.0957V72.8677H63.8474V71.3012H60.4179V76.6363H59.1051V70.1582L63.5937 70.1588ZM27.4729 70.1588L30.3945 74.4347V70.1588H31.7922V76.6368H30.8607C30.3101 76.6368 30.183 76.341 29.8022 75.8747L27.3886 72.3609V76.6368H25.9908V70.1588H27.4729ZM13.245 70.1588C14.1343 70.1588 14.685 70.6239 14.685 71.4705V72.5718C14.685 73.1225 14.3036 73.334 14.1343 73.3762C14.0921 73.4183 14.0921 73.4605 14.1343 73.4605C14.3036 73.5027 14.685 73.672 14.685 74.2227V75.2385C14.685 75.9163 14.2192 76.6363 13.245 76.6363H8.62986V70.1582L13.245 70.1588ZM9.98432 71.3434V75.4511H13.2872V74.0112H10.6194V72.8249H13.2872V71.3428L9.98432 71.3434ZM21.2485 70.1588V71.3439H16.8021V75.4944H21.2485V76.6374H16.8443C15.955 76.6374 15.4893 76.13 15.4893 75.3257V71.4716C15.4893 70.7094 15.955 70.1599 16.8443 70.1599H21.2485V70.1588Z" fill="black"/>
<path fill-rule="evenodd" clip-rule="evenodd" d="M21.2457 74.0112H17.4766V72.8671H21.2457V74.0112ZM74.2189 70.1582V71.3434H69.7725V75.4939H74.2189V76.6368H69.8147C68.9254 76.6368 68.4608 76.1295 68.4608 75.3251V71.471C68.4608 70.7089 68.926 70.1593 69.8147 70.1593H74.2189V70.1582Z" fill="black"/>
<path fill-rule="evenodd" clip-rule="evenodd" d="M74.2181 74.0112H70.4495V72.8671H74.2181V74.0112ZM82.8994 76.3826C82.8994 76.8067 82.6458 77.2291 82.391 77.2291H81.968C81.968 77.2291 82.2638 76.9333 82.2638 76.6363H81.7132V75.5361H82.8994V76.3826ZM37.1243 70.1582C37.8443 70.1582 38.6064 70.5812 38.6064 71.3855V75.3246C38.6064 76.1711 37.8443 76.6363 36.8279 76.6363H32.5508V70.1582H37.1243ZM33.9058 75.4933H37.2087V71.3428H33.9058V75.4933ZM99.2445 70.1582C100.007 70.1582 100.727 70.5812 100.727 71.3855V75.3246C100.727 76.1711 100.007 76.6363 98.9909 76.6363H94.6716V70.1582H99.2445ZM96.0688 75.4933H99.3289V71.3428H96.0688V75.4933ZM101.277 76.6363H102.42V75.5355H101.277V76.6363Z" fill="black"/>
<path fill-rule="evenodd" clip-rule="evenodd" d="M105.428 29.7681L104.315 36.3595H82.4006L79.9187 50.6545H101.747L100.548 57.3308H79.8333C72.5575 57.3308 72.0435 52.024 72.386 50.1405L74.6963 37.4719C75.2103 34.647 75.7244 29.7676 85.0546 29.7676L105.428 29.7681Z" fill="black"/>
<path fill-rule="evenodd" clip-rule="evenodd" d="M103.202 40.1264L102.09 46.3747H83.4286L84.5411 40.1264H103.202ZM1.67986 50.3981L5.36077 29.7681H12.8081L9.04168 50.5696H25.4773L29.1582 29.7687H36.6049L32.924 50.5696C32.325 54.079 30.6986 57.3319 22.7372 57.3319H9.64064C1.33792 57.3314 1.33792 52.1955 1.67986 50.3981ZM47.4761 36.3595L44.9082 50.5696H61.1722L61.9433 46.3747H48.5036L49.616 40.1264H63.0551L63.739 36.36L47.4761 36.3595ZM63.9111 29.7681C71.3584 29.7681 71.2729 35.161 71.1014 36.6159C70.931 37.4719 70.76 38.7559 70.674 39.0129C70.3315 41.4953 69.475 42.6938 67.506 42.9508C67.3345 42.9508 67.3345 43.0363 67.4205 43.1218C69.219 44.0632 69.732 44.8337 69.219 47.9151L68.7911 50.2266C68.1915 53.3074 66.9936 57.3308 58.9468 57.3308H36.0914L40.9708 29.7676L63.9111 29.7681Z" fill="black"/>
</svg>
