<svg width="400" height="89" viewBox="0 0 400 89" fill="none" xmlns="http://www.w3.org/2000/svg">
<rect width="400" height="89" fill="#064DA0"/>
<rect x="276.094" y="71.5864" width="12.3182" height="95.4054" transform="rotate(-90 276.094 71.5864)" fill="white"/>
<path fill-rule="evenodd" clip-rule="evenodd" d="M320.532 54.6791H317.319C317.276 54.5819 317.238 54.366 317.206 54.0313C317.174 53.6967 317.148 53.2541 317.126 52.7035C317.105 52.1529 317.089 51.4997 317.078 50.744C317.067 49.9775 317.062 49.1247 317.062 48.1854V45.0762C317.062 43.9967 317.014 43.1762 316.918 42.6148C316.832 42.0426 316.618 41.6486 316.276 41.4327C315.945 41.206 315.41 41.071 314.672 41.0278L312.7 40.9145V54.6791H309.422V26.1782H315.298C316.795 26.1782 317.901 26.4481 318.618 26.9879C319.334 27.5169 319.799 28.3212 320.013 29.4008C320.238 30.4695 320.35 31.819 320.35 33.4492C320.35 35.2089 320.173 36.607 319.821 37.6433C319.468 38.6797 318.783 39.3491 317.768 39.6514C318.281 39.7377 318.703 39.959 319.035 40.3153C319.377 40.6716 319.644 41.2275 319.837 41.9833C320.029 42.739 320.163 43.7538 320.238 45.0277C320.323 46.2908 320.366 47.8832 320.366 49.8048V50.5983C320.366 50.9438 320.371 51.3216 320.382 51.7318C320.393 52.1421 320.403 52.5469 320.414 52.9464C320.435 53.3458 320.462 53.7021 320.494 54.0152C320.506 54.1225 320.518 54.2197 320.532 54.3067V54.6791ZM314.817 38.453H312.7V28.834H314.785C315.437 28.834 315.923 28.9419 316.244 29.1579C316.565 29.3738 316.779 29.7948 316.886 30.421C317.003 31.0363 317.062 31.9486 317.062 33.1577V33.352C317.062 34.8095 317.003 35.9052 316.886 36.6393C316.768 37.3627 316.543 37.8485 316.212 38.0968C315.891 38.3343 315.426 38.453 314.817 38.453Z" fill="white"/>
<path d="M276 54.7698L283.393 26.3804L290.49 54.7698L283.689 50.6297V47.3767L286.35 48.7075L283.393 36.435L280.584 48.7075L282.802 47.3767V50.6297L276 54.7698Z" fill="white"/>
<path d="M292.562 54.7698L299.956 26.3804L307.053 54.7698L300.251 50.6297V47.3767L302.913 48.7075L299.956 36.435L297.146 48.7075L299.364 47.3767V50.6297L292.562 54.7698Z" fill="white"/>
<path d="M289.633 69.0466C289.089 69.0466 288.613 68.9616 288.205 68.7915C287.797 68.6147 287.481 68.3664 287.256 68.0467C287.039 67.7203 286.93 67.3428 286.93 66.9143V66.6898C286.93 66.6558 286.94 66.6286 286.96 66.6082C286.988 66.581 287.018 66.5674 287.052 66.5674H288.215C288.249 66.5674 288.276 66.581 288.297 66.6082C288.324 66.6286 288.338 66.6558 288.338 66.6898V66.8429C288.338 67.1149 288.463 67.3462 288.715 67.5366C288.967 67.7203 289.307 67.8121 289.735 67.8121C290.096 67.8121 290.364 67.7373 290.541 67.5876C290.718 67.4312 290.807 67.2408 290.807 67.0163C290.807 66.8531 290.752 66.717 290.643 66.6082C290.535 66.4926 290.385 66.394 290.194 66.3123C290.011 66.2239 289.715 66.1049 289.307 65.9553C288.851 65.7988 288.463 65.639 288.144 65.4758C287.831 65.3125 287.566 65.0915 287.348 64.8126C287.137 64.5269 287.032 64.1767 287.032 63.7618C287.032 63.3537 287.137 62.9966 287.348 62.6905C287.559 62.3844 287.851 62.1498 288.225 61.9866C288.599 61.8233 289.031 61.7417 289.521 61.7417C290.038 61.7417 290.497 61.8335 290.898 62.0172C291.307 62.2008 291.623 62.4593 291.847 62.7925C292.078 63.119 292.194 63.4999 292.194 63.9352V64.0882C292.194 64.1222 292.181 64.1529 292.153 64.1801C292.133 64.2005 292.106 64.2107 292.072 64.2107H290.898C290.864 64.2107 290.834 64.2005 290.807 64.1801C290.786 64.1529 290.776 64.1222 290.776 64.0882V64.0066C290.776 63.721 290.657 63.4795 290.419 63.2823C290.188 63.0782 289.868 62.9762 289.46 62.9762C289.14 62.9762 288.889 63.0442 288.705 63.1802C288.528 63.3163 288.44 63.5033 288.44 63.7414C288.44 63.9114 288.491 64.0542 288.593 64.1699C288.702 64.2855 288.858 64.3909 289.062 64.4861C289.273 64.5746 289.596 64.697 290.031 64.8534C290.514 65.0303 290.892 65.1867 291.164 65.3227C291.443 65.4588 291.691 65.6628 291.908 65.9349C292.133 66.2001 292.245 66.547 292.245 66.9755C292.245 67.6148 292.01 68.1216 291.541 68.4957C291.072 68.8629 290.436 69.0466 289.633 69.0466Z" fill="#064DA0"/>
<path d="M299.874 69.0772C299.343 69.0772 298.874 68.9684 298.466 68.7507C298.064 68.5331 297.752 68.2304 297.527 67.8427C297.303 67.4482 297.19 66.9959 297.19 66.4858V64.3025C297.19 63.7992 297.303 63.3537 297.527 62.966C297.752 62.5783 298.064 62.279 298.466 62.0682C298.874 61.8505 299.343 61.7417 299.874 61.7417C300.411 61.7417 300.88 61.8505 301.282 62.0682C301.69 62.279 302.006 62.5783 302.23 62.966C302.455 63.3537 302.567 63.7992 302.567 64.3025V66.4858C302.567 66.9959 302.455 67.4482 302.23 67.8427C302.006 68.2372 301.69 68.5433 301.282 68.7609C300.88 68.9718 300.411 69.0772 299.874 69.0772ZM299.874 67.8427C300.248 67.8427 300.55 67.7237 300.782 67.4856C301.013 67.2476 301.129 66.9313 301.129 66.5368V64.2923C301.129 63.8978 301.013 63.5815 300.782 63.3435C300.557 63.0986 300.255 62.9762 299.874 62.9762C299.5 62.9762 299.197 63.0986 298.966 63.3435C298.741 63.5815 298.629 63.8978 298.629 64.2923V66.5368C298.629 66.9313 298.741 67.2476 298.966 67.4856C299.197 67.7237 299.5 67.8427 299.874 67.8427Z" fill="#064DA0"/>
<path d="M307.873 68.965C307.839 68.965 307.809 68.9548 307.782 68.9344C307.761 68.9071 307.751 68.8765 307.751 68.8425V61.9457C307.751 61.9117 307.761 61.8845 307.782 61.8641C307.809 61.8369 307.839 61.8233 307.873 61.8233H309.067C309.101 61.8233 309.128 61.8369 309.149 61.8641C309.176 61.8845 309.189 61.9117 309.189 61.9457V67.6795C309.189 67.7135 309.206 67.7305 309.24 67.7305H312.577C312.611 67.7305 312.638 67.7441 312.658 67.7713C312.685 67.7917 312.699 67.8189 312.699 67.8529V68.8425C312.699 68.8765 312.685 68.9071 312.658 68.9344C312.638 68.9548 312.611 68.965 312.577 68.965H307.873Z" fill="#064DA0"/>
<path d="M320.131 69.0772C319.601 69.0772 319.131 68.9684 318.723 68.7507C318.322 68.5331 318.009 68.2304 317.784 67.8427C317.56 67.4482 317.448 66.9959 317.448 66.4858V64.3025C317.448 63.7992 317.56 63.3537 317.784 62.966C318.009 62.5783 318.322 62.279 318.723 62.0682C319.131 61.8505 319.601 61.7417 320.131 61.7417C320.668 61.7417 321.138 61.8505 321.539 62.0682C321.947 62.279 322.263 62.5783 322.488 62.966C322.712 63.3537 322.824 63.7992 322.824 64.3025V66.4858C322.824 66.9959 322.712 67.4482 322.488 67.8427C322.263 68.2372 321.947 68.5433 321.539 68.7609C321.138 68.9718 320.668 69.0772 320.131 69.0772ZM320.131 67.8427C320.505 67.8427 320.808 67.7237 321.039 67.4856C321.27 67.2476 321.386 66.9313 321.386 66.5368V64.2923C321.386 63.8978 321.27 63.5815 321.039 63.3435C320.815 63.0986 320.512 62.9762 320.131 62.9762C319.757 62.9762 319.454 63.0986 319.223 63.3435C318.999 63.5815 318.886 63.8978 318.886 64.2923V66.5368C318.886 66.9313 318.999 67.2476 319.223 67.4856C319.454 67.7237 319.757 67.8427 320.131 67.8427Z" fill="#064DA0"/>
<path d="M332.11 61.9457C332.11 61.9117 332.12 61.8845 332.14 61.8641C332.167 61.8369 332.198 61.8233 332.232 61.8233H333.426C333.46 61.8233 333.487 61.8369 333.507 61.8641C333.535 61.8845 333.548 61.9117 333.548 61.9457V68.8425C333.548 68.8765 333.535 68.9071 333.507 68.9344C333.487 68.9548 333.46 68.965 333.426 68.965H332.273C332.205 68.965 332.157 68.9378 332.13 68.8833L329.488 64.5167C329.474 64.4963 329.46 64.4895 329.447 64.4963C329.433 64.4963 329.426 64.5099 329.426 64.5371L329.447 68.8425C329.447 68.8765 329.433 68.9071 329.406 68.9344C329.386 68.9548 329.358 68.965 329.324 68.965H328.131C328.097 68.965 328.066 68.9548 328.039 68.9344C328.018 68.9071 328.008 68.8765 328.008 68.8425V61.9457C328.008 61.9117 328.018 61.8845 328.039 61.8641C328.066 61.8369 328.097 61.8233 328.131 61.8233H329.284C329.352 61.8233 329.399 61.8505 329.426 61.9049L332.059 66.2511C332.072 66.2715 332.086 66.2817 332.099 66.2817C332.113 66.2749 332.12 66.2579 332.12 66.2307L332.11 61.9457Z" fill="#064DA0"/>
<path d="M338.997 68.965C338.963 68.965 338.932 68.9548 338.905 68.9344C338.884 68.9071 338.874 68.8765 338.874 68.8425V61.9457C338.874 61.9117 338.884 61.8845 338.905 61.8641C338.932 61.8369 338.963 61.8233 338.997 61.8233H340.19C340.224 61.8233 340.251 61.8369 340.272 61.8641C340.299 61.8845 340.313 61.9117 340.313 61.9457V68.8425C340.313 68.8765 340.299 68.9071 340.272 68.9344C340.251 68.9548 340.224 68.965 340.19 68.965H338.997Z" fill="#064DA0"/>
<path d="M348.145 69.0466C347.614 69.0466 347.149 68.9446 346.747 68.7405C346.346 68.5297 346.037 68.2372 345.819 67.8631C345.601 67.489 345.492 67.0571 345.492 66.5674V64.2107C345.492 63.721 345.601 63.2891 345.819 62.915C346.037 62.5409 346.346 62.2518 346.747 62.0478C347.149 61.8437 347.614 61.7417 348.145 61.7417C348.669 61.7417 349.128 61.8403 349.522 62.0376C349.924 62.228 350.233 62.5035 350.451 62.864C350.675 63.2176 350.787 63.6291 350.787 64.0984C350.787 64.1597 350.747 64.1971 350.665 64.2107L349.471 64.2821H349.451C349.383 64.2821 349.349 64.2447 349.349 64.1699C349.349 63.8094 349.237 63.5203 349.012 63.3027C348.795 63.085 348.506 62.9762 348.145 62.9762C347.778 62.9762 347.482 63.085 347.257 63.3027C347.04 63.5203 346.931 63.8094 346.931 64.1699V66.6286C346.931 66.9823 347.04 67.268 347.257 67.4856C347.482 67.7033 347.778 67.8121 348.145 67.8121C348.506 67.8121 348.795 67.7033 349.012 67.4856C349.237 67.268 349.349 66.9823 349.349 66.6286C349.349 66.5538 349.39 66.5164 349.471 66.5164L350.665 66.5674C350.699 66.5674 350.726 66.5776 350.747 66.598C350.774 66.6184 350.787 66.6422 350.787 66.6694C350.787 67.1387 350.675 67.5536 350.451 67.9141C350.233 68.2746 349.924 68.5535 349.522 68.7507C349.128 68.948 348.669 69.0466 348.145 69.0466Z" fill="#064DA0"/>
<path d="M358.372 69.0466C357.828 69.0466 357.352 68.9616 356.944 68.7915C356.535 68.6147 356.219 68.3664 355.995 68.0467C355.777 67.7203 355.668 67.3428 355.668 66.9143V66.6898C355.668 66.6558 355.678 66.6286 355.699 66.6082C355.726 66.581 355.757 66.5674 355.791 66.5674H356.954C356.988 66.5674 357.015 66.581 357.035 66.6082C357.063 66.6286 357.076 66.6558 357.076 66.6898V66.8429C357.076 67.1149 357.202 67.3462 357.454 67.5366C357.705 67.7203 358.045 67.8121 358.474 67.8121C358.834 67.8121 359.103 67.7373 359.28 67.5876C359.457 67.4312 359.545 67.2408 359.545 67.0163C359.545 66.8531 359.491 66.717 359.382 66.6082C359.273 66.4926 359.123 66.394 358.933 66.3123C358.749 66.2239 358.453 66.1049 358.045 65.9553C357.59 65.7988 357.202 65.639 356.882 65.4758C356.569 65.3125 356.304 65.0915 356.087 64.8126C355.876 64.5269 355.77 64.1767 355.77 63.7618C355.77 63.3537 355.876 62.9966 356.087 62.6905C356.297 62.3844 356.59 62.1498 356.964 61.9866C357.338 61.8233 357.77 61.7417 358.26 61.7417C358.777 61.7417 359.236 61.8335 359.637 62.0172C360.045 62.2008 360.361 62.4593 360.586 62.7925C360.817 63.119 360.933 63.4999 360.933 63.9352V64.0882C360.933 64.1222 360.919 64.1529 360.892 64.1801C360.871 64.2005 360.844 64.2107 360.81 64.2107H359.637C359.603 64.2107 359.572 64.2005 359.545 64.1801C359.525 64.1529 359.515 64.1222 359.515 64.0882V64.0066C359.515 63.721 359.396 63.4795 359.157 63.2823C358.926 63.0782 358.607 62.9762 358.198 62.9762C357.879 62.9762 357.627 63.0442 357.443 63.1802C357.267 63.3163 357.178 63.5033 357.178 63.7414C357.178 63.9114 357.229 64.0542 357.331 64.1699C357.44 64.2855 357.596 64.3909 357.801 64.4861C358.011 64.5746 358.334 64.697 358.77 64.8534C359.253 65.0303 359.63 65.1867 359.902 65.3227C360.181 65.4588 360.429 65.6628 360.647 65.9349C360.871 66.2001 360.984 66.547 360.984 66.9755C360.984 67.6148 360.749 68.1216 360.28 68.4957C359.81 68.8629 359.174 69.0466 358.372 69.0466Z" fill="#064DA0"/>
<path fill-rule="evenodd" clip-rule="evenodd" d="M360.461 26.1782V54.5825H363.777V41.0582H368.294V54.5825H371.609V26.1782H368.294V38.3307H363.777V26.1782H360.461Z" fill="white"/>
<path fill-rule="evenodd" clip-rule="evenodd" d="M332.609 54.6791V26.1782H342.852V28.9635H335.929V38.7121H342.579V41.4974H335.929V51.8938H342.916V54.6791H332.609Z" fill="white"/>
<path fill-rule="evenodd" clip-rule="evenodd" d="M348.332 53.6974C349.145 54.3518 350.235 54.6791 351.604 54.6791C353.015 54.6791 354.117 54.3571 354.908 53.7132C355.699 53.0693 356.255 52.114 356.576 50.8473C356.907 49.5806 357.073 48.0183 357.073 46.1605V43.1046H353.785V46.1922C353.785 48.2189 353.646 49.6756 353.368 50.5623C353.09 51.449 352.507 51.8923 351.62 51.8923C351.01 51.8923 350.54 51.7023 350.209 51.3223C349.888 50.9423 349.669 50.3353 349.551 49.5014C349.433 48.657 349.375 47.5591 349.375 46.208V34.1426C349.375 32.4642 349.53 31.187 349.84 30.3108C350.16 29.4242 350.786 28.9808 351.716 28.9808C352.593 28.9808 353.154 29.4136 353.4 30.2792C353.657 31.1342 353.785 32.4273 353.785 34.1585V37.2619H357.041V34.1743C357.041 32.992 356.966 31.9153 356.816 30.9442C356.677 29.9625 356.415 29.118 356.03 28.4108C355.645 27.693 355.106 27.1441 354.411 26.7641C353.716 26.3735 352.817 26.1782 351.716 26.1782C350.561 26.1782 349.615 26.3841 348.877 26.7957C348.14 27.1969 347.562 27.7722 347.145 28.5216C346.739 29.2605 346.456 30.142 346.295 31.1659C346.135 32.1792 346.055 33.2982 346.055 34.5226V46.1288C346.055 47.955 346.231 49.5067 346.584 50.784C346.937 52.0612 347.52 53.0324 348.332 53.6974Z" fill="white"/>
<rect x="324.883" y="17" width="3.38146" height="37.6791" fill="white"/>
<rect x="321.258" y="23.2607" width="3.2462" height="36.1721" transform="rotate(-90 321.258 23.2607)" fill="white"/>
</svg>
